<mxfile>
    <diagram id="TzqzjFGCYatBl3PDCIQU" name="Page-1">
        <mxGraphModel dx="4611" dy="2280" grid="1" gridSize="10" guides="1" tooltips="1" connect="1" arrows="1" fold="1" page="1" pageScale="1" pageWidth="3300" pageHeight="4681" math="0" shadow="0">
            <root>
                <mxCell id="0"/>
                <mxCell id="1" parent="0"/>
                <mxCell id="85" style="edgeStyle=orthogonalEdgeStyle;rounded=0;orthogonalLoop=1;jettySize=auto;html=1;entryX=0;entryY=0.5;entryDx=0;entryDy=0;strokeColor=#FF0526;fillColor=none;" edge="1" parent="1" source="2" target="5">
                    <mxGeometry relative="1" as="geometry"/>
                </mxCell>
                <mxCell id="2" value="Docker hub /&lt;br&gt;Docker Registry" style="shape=parallelogram;perimeter=parallelogramPerimeter;whiteSpace=wrap;html=1;fixedSize=1;" vertex="1" parent="1">
                    <mxGeometry x="110" y="1447" width="210" height="60" as="geometry"/>
                </mxCell>
                <mxCell id="3" value="SideCar Proxy" style="rounded=0;whiteSpace=wrap;html=1;" vertex="1" parent="1">
                    <mxGeometry x="790" y="967" width="440" height="130" as="geometry"/>
                </mxCell>
                <mxCell id="90" style="edgeStyle=orthogonalEdgeStyle;rounded=0;orthogonalLoop=1;jettySize=auto;html=1;entryX=0.5;entryY=0;entryDx=0;entryDy=0;strokeColor=#0000CC;fillColor=none;" edge="1" parent="1" source="4" target="5">
                    <mxGeometry relative="1" as="geometry"/>
                </mxCell>
                <mxCell id="4" value="Schema Chnage&amp;nbsp;" style="rounded=0;whiteSpace=wrap;html=1;" vertex="1" parent="1">
                    <mxGeometry x="790" y="1217" width="440" height="80" as="geometry"/>
                </mxCell>
                <mxCell id="5" value="App" style="rounded=0;whiteSpace=wrap;html=1;" vertex="1" parent="1">
                    <mxGeometry x="790" y="1437" width="440" height="80" as="geometry"/>
                </mxCell>
                <mxCell id="6" style="edgeStyle=orthogonalEdgeStyle;rounded=0;orthogonalLoop=1;jettySize=auto;html=1;shadow=0;strokeColor=#000000;fillColor=none;" edge="1" parent="1" source="7">
                    <mxGeometry relative="1" as="geometry">
                        <mxPoint x="1010" y="967" as="targetPoint"/>
                        <Array as="points">
                            <mxPoint x="1010" y="622"/>
                        </Array>
                    </mxGeometry>
                </mxCell>
                <mxCell id="7" value="API Server" style="rounded=0;whiteSpace=wrap;html=1;" vertex="1" parent="1">
                    <mxGeometry x="1738" y="587" width="250" height="70" as="geometry"/>
                </mxCell>
                <mxCell id="8" style="edgeStyle=orthogonalEdgeStyle;rounded=0;orthogonalLoop=1;jettySize=auto;html=1;shadow=0;strokeColor=#000000;fillColor=none;entryX=0;entryY=0.75;entryDx=0;entryDy=0;" edge="1" parent="1" target="7">
                    <mxGeometry relative="1" as="geometry">
                        <mxPoint x="1750" y="267" as="targetPoint"/>
                        <mxPoint x="1740" y="1012" as="sourcePoint"/>
                        <Array as="points">
                            <mxPoint x="1610" y="1012"/>
                            <mxPoint x="1610" y="639"/>
                        </Array>
                    </mxGeometry>
                </mxCell>
                <mxCell id="9" style="edgeStyle=orthogonalEdgeStyle;rounded=0;orthogonalLoop=1;jettySize=auto;html=1;shadow=0;strokeColor=#000000;fillColor=none;entryX=0.5;entryY=0;entryDx=0;entryDy=0;entryPerimeter=0;" edge="1" parent="1" target="29">
                    <mxGeometry relative="1" as="geometry">
                        <mxPoint x="1990" y="1012" as="sourcePoint"/>
                        <mxPoint x="2940" y="1347" as="targetPoint"/>
                        <Array as="points">
                            <mxPoint x="2290" y="1012"/>
                            <mxPoint x="2290" y="1167"/>
                            <mxPoint x="2725" y="1167"/>
                        </Array>
                    </mxGeometry>
                </mxCell>
                <mxCell id="10" style="edgeStyle=orthogonalEdgeStyle;rounded=0;orthogonalLoop=1;jettySize=auto;html=1;shadow=0;strokeColor=#000000;fillColor=none;" edge="1" parent="1" target="7">
                    <mxGeometry relative="1" as="geometry">
                        <mxPoint x="1780" y="217" as="targetPoint"/>
                        <mxPoint x="1870" y="1067" as="sourcePoint"/>
                        <Array as="points">
                            <mxPoint x="1870" y="1107"/>
                            <mxPoint x="1410" y="1107"/>
                            <mxPoint x="1410" y="497"/>
                            <mxPoint x="1780" y="497"/>
                        </Array>
                    </mxGeometry>
                </mxCell>
                <mxCell id="11" style="edgeStyle=orthogonalEdgeStyle;rounded=0;orthogonalLoop=1;jettySize=auto;html=1;shadow=0;strokeColor=#0000CC;fillColor=none;entryX=0.047;entryY=-0.006;entryDx=0;entryDy=0;entryPerimeter=0;" edge="1" parent="1" target="7">
                    <mxGeometry relative="1" as="geometry">
                        <mxPoint x="1760" y="577" as="targetPoint"/>
                        <mxPoint x="1740" y="1037" as="sourcePoint"/>
                        <Array as="points">
                            <mxPoint x="1460" y="1037"/>
                            <mxPoint x="1460" y="547"/>
                            <mxPoint x="1750" y="547"/>
                        </Array>
                    </mxGeometry>
                </mxCell>
                <mxCell id="13" style="edgeStyle=orthogonalEdgeStyle;rounded=0;orthogonalLoop=1;jettySize=auto;html=1;shadow=0;strokeColor=#000000;fillColor=none;" edge="1" parent="1">
                    <mxGeometry relative="1" as="geometry">
                        <mxPoint x="1860" y="657" as="targetPoint"/>
                        <mxPoint x="1860" y="977" as="sourcePoint"/>
                        <Array as="points">
                            <mxPoint x="1860" y="857"/>
                            <mxPoint x="1860" y="857"/>
                        </Array>
                    </mxGeometry>
                </mxCell>
                <mxCell id="16" value="Kubelet" style="rounded=0;whiteSpace=wrap;html=1;strokeColor=#000000;fillColor=none;" vertex="1" parent="1">
                    <mxGeometry x="790" y="1647" width="440" height="80" as="geometry"/>
                </mxCell>
                <mxCell id="17" value="3). Apply EPF yaml&amp;nbsp; to cluster&lt;br&gt;&amp;nbsp; &amp;nbsp; dbversion&amp;nbsp; &amp;nbsp; &amp;nbsp;x --&amp;gt; y&lt;br&gt;&amp;nbsp; &amp;nbsp; &amp;nbsp;appversion&amp;nbsp; &amp;nbsp;a --&amp;gt; b&amp;nbsp;" style="text;html=1;align=center;verticalAlign=middle;resizable=0;points=[];autosize=1;" vertex="1" parent="1">
                    <mxGeometry x="1928" y="507" width="170" height="50" as="geometry"/>
                </mxCell>
                <mxCell id="18" value="4). Update EPF yaml&amp;nbsp; in the Etcd" style="text;html=1;align=center;verticalAlign=middle;resizable=0;points=[];autosize=1;" vertex="1" parent="1">
                    <mxGeometry x="2088" y="667" width="190" height="20" as="geometry"/>
                </mxCell>
                <mxCell id="19" value="Etcd" style="shape=cylinder3;whiteSpace=wrap;html=1;boundedLbl=1;backgroundOutline=1;size=15;strokeColor=#000000;fillColor=none;" vertex="1" parent="1">
                    <mxGeometry x="2348" y="727" width="62" height="70" as="geometry"/>
                </mxCell>
                <mxCell id="20" value="1) Watch operator &lt;br&gt;change the EPF Yaml" style="text;html=1;align=center;verticalAlign=middle;resizable=0;points=[];autosize=1;" vertex="1" parent="1">
                    <mxGeometry x="1860" y="807" width="130" height="30" as="geometry"/>
                </mxCell>
                <mxCell id="21" value="2) watch operator EPF" style="text;html=1;align=center;verticalAlign=middle;resizable=0;points=[];autosize=1;" vertex="1" parent="1">
                    <mxGeometry x="2113" y="757" width="140" height="20" as="geometry"/>
                </mxCell>
                <mxCell id="22" value="5). Operator send the request to &lt;br&gt;sidecar proxy through the API server&lt;br&gt;store the requests" style="text;html=1;align=center;verticalAlign=middle;resizable=0;points=[];autosize=1;" vertex="1" parent="1">
                    <mxGeometry x="1610" y="787" width="210" height="50" as="geometry"/>
                </mxCell>
                <mxCell id="23" style="edgeStyle=orthogonalEdgeStyle;rounded=0;orthogonalLoop=1;jettySize=auto;html=1;shadow=0;strokeColor=#0000CC;fillColor=none;" edge="1" parent="1" source="25" target="4">
                    <mxGeometry relative="1" as="geometry">
                        <Array as="points">
                            <mxPoint x="1155" y="1197"/>
                            <mxPoint x="1010" y="1197"/>
                        </Array>
                    </mxGeometry>
                </mxCell>
                <mxCell id="24" style="edgeStyle=orthogonalEdgeStyle;rounded=0;orthogonalLoop=1;jettySize=auto;html=1;shadow=0;strokeColor=#0000CC;fillColor=none;entryX=1;entryY=0.5;entryDx=0;entryDy=0;" edge="1" parent="1" source="25" target="5">
                    <mxGeometry relative="1" as="geometry">
                        <mxPoint x="1270" y="1527" as="targetPoint"/>
                        <Array as="points">
                            <mxPoint x="1270" y="1032"/>
                            <mxPoint x="1270" y="1477"/>
                        </Array>
                    </mxGeometry>
                </mxCell>
                <mxCell id="25" value="Queue" style="shape=cylinder3;whiteSpace=wrap;html=1;boundedLbl=1;backgroundOutline=1;size=15;strokeColor=#000000;fillColor=none;" vertex="1" parent="1">
                    <mxGeometry x="1120" y="992" width="70" height="80" as="geometry"/>
                </mxCell>
                <mxCell id="26" value="" style="endArrow=classic;html=1;shadow=0;strokeColor=#000000;fillColor=none;" edge="1" parent="1" target="25">
                    <mxGeometry width="50" height="50" relative="1" as="geometry">
                        <mxPoint x="1010" y="967" as="sourcePoint"/>
                        <mxPoint x="1080" y="1067" as="targetPoint"/>
                    </mxGeometry>
                </mxCell>
                <mxCell id="27" value="6) Requst send to&amp;nbsp;&lt;br&gt;Proxy Server" style="text;html=1;align=center;verticalAlign=middle;resizable=0;points=[];autosize=1;" vertex="1" parent="1">
                    <mxGeometry x="1110" y="587" width="110" height="30" as="geometry"/>
                </mxCell>
                <mxCell id="28" value="7). send request db with&lt;br&gt;&amp;nbsp;app version and db version" style="text;html=1;align=center;verticalAlign=middle;resizable=0;points=[];autosize=1;" vertex="1" parent="1">
                    <mxGeometry x="2140" y="977" width="160" height="30" as="geometry"/>
                </mxCell>
                <mxCell id="29" value="Databse" style="shape=cylinder3;whiteSpace=wrap;html=1;boundedLbl=1;backgroundOutline=1;size=15;strokeColor=#000000;fillColor=none;" vertex="1" parent="1">
                    <mxGeometry x="2660" y="1397" width="130" height="100" as="geometry"/>
                </mxCell>
                <mxCell id="30" value="8) Calling Stored Procedure check the database version and&lt;br&gt;appversion already in Version table. if it has then no need to&lt;br&gt;update the database else update the database(x --&amp;gt; y) and add to&amp;nbsp;&lt;br&gt;db version and app version into version table." style="text;html=1;align=center;verticalAlign=middle;resizable=0;points=[];autosize=1;" vertex="1" parent="1">
                    <mxGeometry x="2850" y="1420" width="370" height="60" as="geometry"/>
                </mxCell>
                <mxCell id="31" value="" style="endArrow=block;dashed=1;endFill=0;endSize=12;html=1;shadow=0;strokeColor=#CC0066;fillColor=#FF0080;entryX=0.032;entryY=0.286;entryDx=0;entryDy=0;entryPerimeter=0;" edge="1" parent="1" target="19">
                    <mxGeometry width="160" relative="1" as="geometry">
                        <mxPoint x="1860" y="657" as="sourcePoint"/>
                        <mxPoint x="2338" y="717" as="targetPoint"/>
                        <Array as="points">
                            <mxPoint x="1860" y="647"/>
                            <mxPoint x="1880" y="647"/>
                            <mxPoint x="1898" y="647"/>
                            <mxPoint x="1898" y="747"/>
                            <mxPoint x="2300" y="747"/>
                        </Array>
                    </mxGeometry>
                </mxCell>
                <mxCell id="32" value="" style="endArrow=none;dashed=1;html=1;dashPattern=1 3;strokeWidth=2;shadow=0;fillColor=#FF0080;strokeColor=#1A1A1A;" edge="1" parent="1" target="7">
                    <mxGeometry width="50" height="50" relative="1" as="geometry">
                        <mxPoint x="1743" y="637" as="sourcePoint"/>
                        <mxPoint x="1743" y="617" as="targetPoint"/>
                        <Array as="points">
                            <mxPoint x="1753" y="637"/>
                            <mxPoint x="1753" y="622"/>
                        </Array>
                    </mxGeometry>
                </mxCell>
                <mxCell id="33" value="9). Update the &lt;br&gt;App version" style="text;html=1;align=center;verticalAlign=middle;resizable=0;points=[];autosize=1;" vertex="1" parent="1">
                    <mxGeometry x="1440" y="1072" width="90" height="30" as="geometry"/>
                </mxCell>
                <mxCell id="34" value="" style="endArrow=block;dashed=1;endFill=0;endSize=12;html=1;shadow=0;strokeColor=#000000;fillColor=#FF0080;entryX=1;entryY=0.5;entryDx=0;entryDy=0;" edge="1" parent="1" source="7" target="16">
                    <mxGeometry width="160" relative="1" as="geometry">
                        <mxPoint x="1780" y="217" as="sourcePoint"/>
                        <mxPoint x="1310" y="1757" as="targetPoint"/>
                        <Array as="points">
                            <mxPoint x="1780" y="587"/>
                            <mxPoint x="1780" y="597"/>
                            <mxPoint x="1790" y="597"/>
                            <mxPoint x="1790" y="487"/>
                            <mxPoint x="1600" y="487"/>
                            <mxPoint x="1470" y="487"/>
                            <mxPoint x="1360" y="487"/>
                            <mxPoint x="1360" y="1687"/>
                        </Array>
                    </mxGeometry>
                </mxCell>
                <mxCell id="35" style="edgeStyle=orthogonalEdgeStyle;rounded=0;orthogonalLoop=1;jettySize=auto;html=1;entryX=0.612;entryY=0.997;entryDx=0;entryDy=0;entryPerimeter=0;shadow=0;strokeColor=#000000;fillColor=none;" edge="1" parent="1" source="16" target="2">
                    <mxGeometry relative="1" as="geometry">
                        <Array as="points">
                            <mxPoint x="239" y="1687"/>
                        </Array>
                    </mxGeometry>
                </mxCell>
                <mxCell id="36" value="10). Remove old version&lt;br&gt;&amp;nbsp;and pull new version into container&lt;br&gt;x ---&amp;gt; y" style="text;html=1;align=center;verticalAlign=middle;resizable=0;points=[];autosize=1;" vertex="1" parent="1">
                    <mxGeometry x="580" y="1637" width="200" height="50" as="geometry"/>
                </mxCell>
                <mxCell id="37" value="" style="endArrow=block;dashed=1;endFill=0;endSize=12;html=1;shadow=0;strokeColor=#1A1A1A;fillColor=none;entryX=0;entryY=0.75;entryDx=0;entryDy=0;exitX=0.422;exitY=1.018;exitDx=0;exitDy=0;exitPerimeter=0;" edge="1" parent="1" target="5" source="2">
                    <mxGeometry width="160" relative="1" as="geometry">
                        <mxPoint x="440" y="1506" as="sourcePoint"/>
                        <mxPoint x="600" y="1497" as="targetPoint"/>
                        <Array as="points">
                            <mxPoint x="199" y="1497"/>
                        </Array>
                    </mxGeometry>
                </mxCell>
                <mxCell id="38" value="11). Apply Version b" style="text;html=1;align=center;verticalAlign=middle;resizable=0;points=[];autosize=1;" vertex="1" parent="1">
                    <mxGeometry x="610" y="1477" width="120" height="20" as="geometry"/>
                </mxCell>
                <mxCell id="41" value="17). Update finished, &lt;br&gt;then send the request to&lt;br&gt;proxy pop the queue and&amp;nbsp;&lt;br&gt;stop the store requst" style="text;html=1;align=center;verticalAlign=middle;resizable=0;points=[];autosize=1;" vertex="1" parent="1">
                    <mxGeometry x="1460" y="847" width="150" height="60" as="geometry"/>
                </mxCell>
                <mxCell id="42" value="" style="endArrow=block;dashed=1;endFill=0;endSize=12;html=1;shadow=0;strokeColor=#0000FF;fillColor=none;entryX=0.2;entryY=0.015;entryDx=0;entryDy=0;entryPerimeter=0;exitX=0.048;exitY=0;exitDx=0;exitDy=0;exitPerimeter=0;" edge="1" parent="1" source="7" target="3">
                    <mxGeometry width="160" relative="1" as="geometry">
                        <mxPoint x="1840" y="237" as="sourcePoint"/>
                        <mxPoint x="890" y="957" as="targetPoint"/>
                        <Array as="points">
                            <mxPoint x="1750" y="597"/>
                            <mxPoint x="1760" y="597"/>
                            <mxPoint x="1760" y="537"/>
                            <mxPoint x="878" y="537"/>
                        </Array>
                    </mxGeometry>
                </mxCell>
                <mxCell id="43" value="" style="endArrow=block;dashed=1;endFill=0;endSize=12;html=1;shadow=0;strokeColor=#0000CC;fillColor=none;exitX=0.193;exitY=0;exitDx=0;exitDy=0;exitPerimeter=0;entryX=0;entryY=0;entryDx=0;entryDy=52.5;entryPerimeter=0;" edge="1" parent="1" source="3" target="25">
                    <mxGeometry width="160" relative="1" as="geometry">
                        <mxPoint x="860" y="997" as="sourcePoint"/>
                        <mxPoint x="1020" y="997" as="targetPoint"/>
                    </mxGeometry>
                </mxCell>
                <mxCell id="44" value="" style="endArrow=open;endFill=1;endSize=12;html=1;shadow=0;strokeColor=#0000CC;fillColor=none;exitX=0;exitY=0.615;exitDx=0;exitDy=0;exitPerimeter=0;entryX=0;entryY=0.25;entryDx=0;entryDy=0;" edge="1" parent="1" source="3" target="5">
                    <mxGeometry width="160" relative="1" as="geometry">
                        <mxPoint x="630" y="1065.8199999999997" as="sourcePoint"/>
                        <mxPoint x="680" y="1407" as="targetPoint"/>
                        <Array as="points">
                            <mxPoint x="670" y="1047"/>
                            <mxPoint x="670" y="1457"/>
                        </Array>
                    </mxGeometry>
                </mxCell>
                <mxCell id="45" value="18). Requst Pass&lt;br&gt;&amp;nbsp;to App" style="text;html=1;align=center;verticalAlign=middle;resizable=0;points=[];autosize=1;" vertex="1" parent="1">
                    <mxGeometry x="570" y="1147" width="110" height="30" as="geometry"/>
                </mxCell>
                <mxCell id="46" value="" style="endArrow=open;endFill=1;endSize=12;html=1;shadow=0;strokeColor=#0000CC;fillColor=none;entryX=0.065;entryY=-0.01;entryDx=0;entryDy=0;entryPerimeter=0;" edge="1" parent="1">
                    <mxGeometry width="160" relative="1" as="geometry">
                        <mxPoint x="821" y="497" as="sourcePoint"/>
                        <mxPoint x="820.6000000000004" y="965.6999999999998" as="targetPoint"/>
                    </mxGeometry>
                </mxCell>
                <mxCell id="47" value="New Requst" style="text;html=1;align=center;verticalAlign=middle;resizable=0;points=[];autosize=1;" vertex="1" parent="1">
                    <mxGeometry x="740" y="797" width="80" height="20" as="geometry"/>
                </mxCell>
                <mxCell id="48" value="19).&amp;nbsp; Check the Requst is put,post or delete&amp;nbsp;&lt;br&gt;then pass to Schema conventor&amp;nbsp;" style="text;html=1;align=center;verticalAlign=middle;resizable=0;points=[];autosize=1;" vertex="1" parent="1">
                    <mxGeometry x="892" y="1157" width="250" height="30" as="geometry"/>
                </mxCell>
                <mxCell id="49" value="21). Get requst directly&amp;nbsp;&lt;br&gt;pass to the App." style="text;html=1;align=center;verticalAlign=middle;resizable=0;points=[];autosize=1;" vertex="1" parent="1">
                    <mxGeometry x="1142" y="1327" width="140" height="30" as="geometry"/>
                </mxCell>
                <mxCell id="54" value="" style="endArrow=classic;html=1;shadow=0;strokeColor=#000000;fillColor=none;" edge="1" parent="1">
                    <mxGeometry width="50" height="50" relative="1" as="geometry">
                        <mxPoint x="1924.8999999999996" y="480" as="sourcePoint"/>
                        <mxPoint x="1924.8999999999996" y="587" as="targetPoint"/>
                        <Array as="points">
                            <mxPoint x="1924.9" y="560"/>
                        </Array>
                    </mxGeometry>
                </mxCell>
                <mxCell id="55" value="" style="endArrow=block;dashed=1;endFill=0;endSize=12;html=1;shadow=0;strokeColor=#000000;fillColor=none;entryX=0.145;entryY=0;entryDx=0;entryDy=4.35;entryPerimeter=0;" edge="1" parent="1" target="19">
                    <mxGeometry width="160" relative="1" as="geometry">
                        <mxPoint x="1924" y="588" as="sourcePoint"/>
                        <mxPoint x="2340" y="687" as="targetPoint"/>
                        <Array as="points">
                            <mxPoint x="1924" y="637"/>
                            <mxPoint x="2060" y="637"/>
                            <mxPoint x="2060" y="687"/>
                            <mxPoint x="2357" y="687"/>
                        </Array>
                    </mxGeometry>
                </mxCell>
                <mxCell id="56" value="" style="endArrow=block;dashed=1;endFill=0;endSize=12;html=1;shadow=0;strokeColor=#0000CC;fillColor=none;" edge="1" parent="1">
                    <mxGeometry width="160" relative="1" as="geometry">
                        <mxPoint x="820" y="967" as="sourcePoint"/>
                        <mxPoint x="790" y="1047" as="targetPoint"/>
                        <Array as="points">
                            <mxPoint x="820" y="1047"/>
                        </Array>
                    </mxGeometry>
                </mxCell>
                <mxCell id="57" value="" style="shape=ext;double=1;rounded=1;whiteSpace=wrap;html=1;strokeColor=#000000;fillColor=none;" vertex="1" parent="1">
                    <mxGeometry x="540" y="890" width="770" height="690" as="geometry"/>
                </mxCell>
                <mxCell id="58" value="" style="shape=ext;double=1;rounded=0;whiteSpace=wrap;html=1;strokeColor=#000000;fillColor=none;" vertex="1" parent="1">
                    <mxGeometry x="525" y="860" width="800" height="927" as="geometry"/>
                </mxCell>
                <mxCell id="82" style="edgeStyle=orthogonalEdgeStyle;rounded=0;orthogonalLoop=1;jettySize=auto;html=1;strokeColor=#FF0526;fillColor=none;entryX=1;entryY=0.75;entryDx=0;entryDy=0;" edge="1" parent="1" source="59" target="16">
                    <mxGeometry relative="1" as="geometry">
                        <mxPoint x="1240" y="1710" as="targetPoint"/>
                        <Array as="points">
                            <mxPoint x="1700" y="1022"/>
                            <mxPoint x="1700" y="1707"/>
                        </Array>
                    </mxGeometry>
                </mxCell>
                <mxCell id="59" value="Operator" style="rounded=0;whiteSpace=wrap;html=1;strokeColor=#000000;fillColor=none;" vertex="1" parent="1">
                    <mxGeometry x="1740" y="977" width="250" height="90" as="geometry"/>
                </mxCell>
                <mxCell id="60" value="" style="rounded=1;whiteSpace=wrap;html=1;strokeColor=#000000;fillColor=none;shadow=1;" vertex="1" parent="1">
                    <mxGeometry x="1670" y="927" width="342" height="220" as="geometry"/>
                </mxCell>
                <mxCell id="61" value="" style="rounded=0;whiteSpace=wrap;html=1;strokeColor=#000000;fillColor=none;shadow=1;" vertex="1" parent="1">
                    <mxGeometry x="1626" y="887" width="462" height="330" as="geometry"/>
                </mxCell>
                <mxCell id="62" value="" style="endArrow=none;html=1;shadow=0;strokeColor=#FF33FF;fillColor=none;entryX=0.5;entryY=1;entryDx=0;entryDy=0;entryPerimeter=0;" edge="1" parent="1" target="29">
                    <mxGeometry width="50" height="50" relative="1" as="geometry">
                        <mxPoint x="990" y="1517" as="sourcePoint"/>
                        <mxPoint x="2410" y="1647" as="targetPoint"/>
                        <Array as="points">
                            <mxPoint x="990" y="1517"/>
                            <mxPoint x="990" y="1567"/>
                            <mxPoint x="990" y="1627"/>
                            <mxPoint x="2405" y="1627"/>
                            <mxPoint x="2725" y="1627"/>
                        </Array>
                    </mxGeometry>
                </mxCell>
                <mxCell id="63" value="DB Conection" style="text;html=1;align=center;verticalAlign=middle;resizable=0;points=[];autosize=1;" vertex="1" parent="1">
                    <mxGeometry x="1770" y="1607" width="90" height="20" as="geometry"/>
                </mxCell>
                <mxCell id="64" value="Node" style="text;html=1;align=center;verticalAlign=middle;resizable=0;points=[];autosize=1;" vertex="1" parent="1">
                    <mxGeometry x="1242" y="837" width="40" height="20" as="geometry"/>
                </mxCell>
                <mxCell id="65" value="Pod" style="text;html=1;align=center;verticalAlign=middle;resizable=0;points=[];autosize=1;" vertex="1" parent="1">
                    <mxGeometry x="1170" y="867" width="40" height="20" as="geometry"/>
                </mxCell>
                <mxCell id="66" value="Pod" style="text;html=1;align=center;verticalAlign=middle;resizable=0;points=[];autosize=1;" vertex="1" parent="1">
                    <mxGeometry x="1960" y="907" width="40" height="20" as="geometry"/>
                </mxCell>
                <mxCell id="67" value="Node" style="text;html=1;align=center;verticalAlign=middle;resizable=0;points=[];autosize=1;" vertex="1" parent="1">
                    <mxGeometry x="2010" y="867" width="40" height="20" as="geometry"/>
                </mxCell>
                <mxCell id="68" value="" style="rounded=0;whiteSpace=wrap;html=1;shadow=1;strokeColor=#000000;fillColor=none;" vertex="1" parent="1">
                    <mxGeometry x="420" y="470" width="2200" height="1610" as="geometry"/>
                </mxCell>
                <mxCell id="69" value="cluster" style="text;html=1;align=center;verticalAlign=middle;resizable=0;points=[];autosize=1;" vertex="1" parent="1">
                    <mxGeometry x="2220" y="432" width="50" height="20" as="geometry"/>
                </mxCell>
                <mxCell id="76" value="" style="endArrow=open;endFill=1;endSize=12;html=1;exitX=0.113;exitY=0.998;exitDx=0;exitDy=0;exitPerimeter=0;fillColor=none;strokeColor=#FF0526;" edge="1" parent="1">
                    <mxGeometry width="160" relative="1" as="geometry">
                        <mxPoint x="835.72" y="1516.84" as="sourcePoint"/>
                        <mxPoint x="836" y="1647" as="targetPoint"/>
                        <Array as="points"/>
                    </mxGeometry>
                </mxCell>
                <mxCell id="78" value="12). Fail update App" style="text;html=1;align=center;verticalAlign=middle;resizable=0;points=[];autosize=1;" vertex="1" parent="1">
                    <mxGeometry x="720" y="1580" width="120" height="20" as="geometry"/>
                </mxCell>
                <mxCell id="79" value="" style="endArrow=block;dashed=1;endFill=0;endSize=12;html=1;strokeColor=#FF0526;fillColor=none;exitX=0.132;exitY=-0.046;exitDx=0;exitDy=0;exitPerimeter=0;entryX=0.075;entryY=0.995;entryDx=0;entryDy=0;entryPerimeter=0;" edge="1" parent="1" source="16" target="59">
                    <mxGeometry width="160" relative="1" as="geometry">
                        <mxPoint x="880" y="1620" as="sourcePoint"/>
                        <mxPoint x="1759" y="1069" as="targetPoint"/>
                        <Array as="points">
                            <mxPoint x="848" y="1560"/>
                            <mxPoint x="1759" y="1560"/>
                        </Array>
                    </mxGeometry>
                </mxCell>
                <mxCell id="80" value="" style="endArrow=open;endFill=1;endSize=12;html=1;strokeColor=#FF0526;fillColor=none;entryX=0;entryY=0;entryDx=0;entryDy=32.5;entryPerimeter=0;exitX=0.16;exitY=1.003;exitDx=0;exitDy=0;exitPerimeter=0;" edge="1" parent="1" source="59" target="29">
                    <mxGeometry width="160" relative="1" as="geometry">
                        <mxPoint x="1780" y="1200" as="sourcePoint"/>
                        <mxPoint x="2320" y="1200" as="targetPoint"/>
                        <Array as="points">
                            <mxPoint x="1780" y="1430"/>
                        </Array>
                    </mxGeometry>
                </mxCell>
                <mxCell id="81" value="13). Downgrade the DB Version x" style="text;html=1;align=center;verticalAlign=middle;resizable=0;points=[];autosize=1;" vertex="1" parent="1">
                    <mxGeometry x="1805" y="1400" width="190" height="20" as="geometry"/>
                </mxCell>
                <mxCell id="83" value="14). Apply the app to version a" style="text;html=1;align=center;verticalAlign=middle;resizable=0;points=[];autosize=1;" vertex="1" parent="1">
                    <mxGeometry x="1515" y="1687" width="180" height="20" as="geometry"/>
                </mxCell>
                <mxCell id="84" value="" style="endArrow=open;endFill=1;endSize=12;html=1;strokeColor=#FF0526;fillColor=none;exitX=-0.006;exitY=0.799;exitDx=0;exitDy=0;exitPerimeter=0;entryX=0.431;entryY=1.01;entryDx=0;entryDy=0;entryPerimeter=0;" edge="1" parent="1" source="16" target="2">
                    <mxGeometry width="160" relative="1" as="geometry">
                        <mxPoint x="780" y="1710" as="sourcePoint"/>
                        <mxPoint x="403" y="1509" as="targetPoint"/>
                        <Array as="points">
                            <mxPoint x="200" y="1710"/>
                        </Array>
                    </mxGeometry>
                </mxCell>
                <mxCell id="87" value="16) pull App version a" style="text;html=1;align=center;verticalAlign=middle;resizable=0;points=[];autosize=1;" vertex="1" parent="1">
                    <mxGeometry x="540" y="1457" width="130" height="20" as="geometry"/>
                </mxCell>
                <mxCell id="88" value="15). Find the image a in Docker hub" style="text;html=1;align=center;verticalAlign=middle;resizable=0;points=[];autosize=1;" vertex="1" parent="1">
                    <mxGeometry x="460" y="1707" width="210" height="20" as="geometry"/>
                </mxCell>
                <mxCell id="91" value="20) Without Changing Schema&lt;br&gt;apply the requst into app" style="text;html=1;align=center;verticalAlign=middle;resizable=0;points=[];autosize=1;" vertex="1" parent="1">
                    <mxGeometry x="840" y="1360" width="180" height="30" as="geometry"/>
                </mxCell>
            </root>
        </mxGraphModel>
    </diagram>
</mxfile>